<?xml version="1.0" encoding="UTF-8"?>
<svg xmlns="http://www.w3.org/2000/svg" xmlns:xlink="http://www.w3.org/1999/xlink" width="283.465pt" height="283.465pt" viewBox="0 0 283.465 283.465">
<path fill-rule="nonzero" fill="rgb(30.984497%, 29.728699%, 30.039978%)" fill-opacity="1" d="M 227.488281 221.375 L 232.363281 232.914062 C 228.65625 232.964844 226.683594 232.988281 226.457031 232.988281 C 225.683594 232.988281 224.410156 232.964844 222.628906 232.914062 Z M 222.386719 227.96875 C 219.386719 234.910156 217.519531 239.019531 216.78125 240.296875 C 216.433594 240.878906 216.101562 241.292969 215.777344 241.539062 C 215.339844 241.863281 214.535156 242.15625 213.363281 242.414062 L 213.363281 243.546875 C 215.152344 243.398438 216.621094 243.324219 217.769531 243.324219 C 218.671875 243.324219 220.226562 243.398438 222.429688 243.546875 L 222.429688 242.414062 C 222.171875 242.335938 221.972656 242.277344 221.832031 242.238281 C 220.488281 241.953125 219.738281 241.757812 219.578125 241.648438 C 219.414062 241.539062 219.335938 241.398438 219.335938 241.230469 C 219.335938 241.035156 219.503906 240.542969 219.839844 239.753906 L 221.882812 234.847656 L 227.160156 234.808594 C 228.402344 234.808594 230.382812 234.820312 233.109375 234.847656 L 235.082031 239.582031 C 235.355469 240.226562 235.492188 240.6875 235.492188 240.957031 C 235.492188 241.21875 235.363281 241.445312 235.101562 241.636719 C 234.84375 241.832031 233.9375 242.089844 232.375 242.414062 L 232.375 243.546875 C 235.109375 243.398438 237.042969 243.324219 238.175781 243.324219 C 239.285156 243.324219 241.011719 243.398438 243.359375 243.546875 L 243.359375 242.414062 C 241.632812 241.910156 240.6875 241.597656 240.519531 241.480469 C 240.273438 241.3125 240.046875 241.050781 239.839844 240.703125 L 235.335938 230.851562 C 232.796875 225.175781 230.660156 220.097656 228.921875 215.621094 L 227.703125 215.621094 Z M 202.320312 220.300781 C 202.320312 219.910156 202.351562 218.777344 202.417969 216.894531 C 199.710938 215.972656 197.398438 215.511719 195.492188 215.511719 C 193.90625 215.511719 192.371094 215.863281 190.898438 216.566406 C 189.417969 217.269531 188.300781 218.222656 187.539062 219.425781 C 186.777344 220.632812 186.398438 221.898438 186.398438 223.226562 C 186.398438 224.75 186.871094 226.058594 187.808594 227.152344 C 188.75 228.261719 190.617188 229.421875 193.410156 230.628906 C 196.203125 231.835938 198.019531 232.914062 198.859375 233.871094 C 199.683594 234.835938 200.097656 235.945312 200.097656 237.199219 C 200.097656 238.734375 199.523438 239.925781 198.378906 240.777344 C 197.230469 241.628906 195.894531 242.054688 194.375 242.054688 C 193.265625 242.054688 192.246094 241.808594 191.320312 241.3125 C 190.390625 240.816406 189.699219 240.179688 189.242188 239.40625 C 188.785156 238.632812 188.339844 237.277344 187.917969 235.34375 L 186.425781 235.34375 C 186.425781 238.347656 186.332031 240.761719 186.148438 242.582031 C 187.851562 243.148438 189.3125 243.546875 190.53125 243.777344 C 191.75 244.011719 192.964844 244.125 194.175781 244.125 C 195.957031 244.125 197.617188 243.75 199.15625 242.996094 C 200.699219 242.238281 201.851562 241.230469 202.621094 239.964844 C 203.386719 238.699219 203.769531 237.332031 203.769531 235.859375 C 203.769531 234.222656 203.261719 232.746094 202.246094 231.429688 C 201.210938 230.125 199.269531 228.859375 196.410156 227.636719 C 193.550781 226.414062 191.757812 225.398438 191.023438 224.601562 C 190.277344 223.800781 189.90625 222.863281 189.90625 221.792969 C 189.90625 220.578125 190.359375 219.546875 191.269531 218.695312 C 192.179688 217.84375 193.402344 217.417969 194.9375 217.417969 C 196.019531 217.417969 196.996094 217.632812 197.867188 218.070312 C 198.738281 218.5 199.386719 219.097656 199.8125 219.863281 C 200.238281 220.628906 200.621094 221.835938 200.953125 223.496094 L 202.417969 223.496094 C 202.351562 222.152344 202.320312 221.085938 202.320312 220.300781 M 159.128906 224.382812 L 159.261719 218.164062 L 167.058594 218.164062 C 168.511719 218.164062 169.449219 218.246094 169.875 218.414062 C 170.199219 218.542969 170.46875 218.804688 170.6875 219.203125 C 171.007812 219.78125 171.425781 220.945312 171.941406 222.691406 L 173.292969 222.691406 C 173.011719 220.519531 172.855469 218.316406 172.828125 216.089844 C 165.910156 216.238281 161.527344 216.3125 159.683594 216.3125 C 156.320312 216.3125 153.425781 216.238281 151.003906 216.089844 L 151.003906 217.222656 L 153.09375 217.6875 C 154.125 217.921875 154.722656 218.085938 154.882812 218.183594 C 155.042969 218.277344 155.164062 218.40625 155.238281 218.558594 C 155.34375 218.792969 155.40625 219.777344 155.433594 221.511719 C 155.460938 223.25 155.472656 225.984375 155.472656 229.714844 C 155.472656 232.28125 155.464844 234.003906 155.453125 234.882812 L 155.367188 239.433594 L 155.367188 239.78125 C 155.367188 240.554688 155.269531 241.066406 155.078125 241.3125 C 154.960938 241.453125 154.648438 241.59375 154.144531 241.738281 L 151.003906 242.414062 L 151.003906 243.546875 C 154.277344 243.398438 157.265625 243.324219 159.972656 243.324219 C 163.851562 243.324219 168.136719 243.398438 172.828125 243.546875 C 174.273438 239.097656 175.070312 236.667969 175.226562 236.253906 L 173.902344 236.253906 C 173.695312 236.605469 173.539062 236.867188 173.4375 237.050781 C 172.433594 238.886719 171.742188 240 171.371094 240.394531 C 170.996094 240.789062 170.566406 241.070312 170.074219 241.238281 C 169.792969 241.328125 169.097656 241.371094 167.988281 241.371094 L 167.273438 241.394531 L 159.179688 241.394531 L 159.082031 230.011719 L 164.375 230.011719 C 165.972656 230.011719 166.933594 230.078125 167.253906 230.214844 C 167.578125 230.351562 167.800781 230.574219 167.929688 230.882812 C 168.019531 231.101562 168.25 232.148438 168.625 234.015625 L 169.894531 234.015625 C 169.75 231.949219 169.675781 230.324219 169.675781 229.132812 C 169.675781 227.984375 169.75 226.34375 169.894531 224.210938 L 168.625 224.210938 C 168.546875 224.511719 168.492188 224.730469 168.453125 224.871094 C 168.15625 226.296875 167.90625 227.15625 167.707031 227.453125 C 167.507812 227.75 167.25 227.945312 166.925781 228.042969 C 166.605469 228.140625 165.542969 228.1875 163.742188 228.1875 L 159.070312 228.1875 Z M 119.027344 217.515625 C 120.640625 217.796875 121.597656 218.070312 121.894531 218.328125 C 122.085938 218.496094 122.1875 218.90625 122.1875 219.566406 L 122.246094 227.214844 L 122.160156 239.082031 C 122.160156 240.207031 122.097656 240.886719 121.976562 241.117188 C 121.851562 241.347656 121.617188 241.535156 121.269531 241.667969 C 120.921875 241.804688 119.765625 242.054688 117.792969 242.414062 L 117.792969 243.546875 C 120.191406 243.398438 122.792969 243.324219 125.589844 243.324219 C 129.550781 243.324219 134.199219 243.398438 139.539062 243.546875 C 139.925781 242.242188 140.253906 241.1875 140.527344 240.386719 L 142.074219 236.0625 L 140.414062 236.0625 C 139.28125 238.191406 138.503906 239.523438 138.09375 240.050781 C 137.679688 240.578125 137.28125 240.921875 136.890625 241.078125 C 136.503906 241.234375 135.671875 241.3125 134.394531 241.3125 L 125.859375 241.3125 C 125.820312 238.445312 125.800781 236.160156 125.800781 234.441406 C 125.800781 225.75 125.8125 220.976562 125.839844 220.125 C 125.867188 219.273438 125.972656 218.714844 126.164062 218.441406 C 126.292969 218.25 126.5 218.109375 126.78125 218.015625 C 127.179688 217.890625 128.539062 217.625 130.859375 217.222656 L 130.859375 216.089844 C 127.105469 216.238281 124.882812 216.3125 124.1875 216.3125 C 123.0625 216.3125 120.921875 216.238281 117.765625 216.089844 L 117.765625 217.222656 C 118.320312 217.367188 118.742188 217.460938 119.027344 217.515625 M 102.648438 216.3125 C 101.074219 216.3125 98.886719 216.238281 96.089844 216.089844 L 96.089844 217.222656 C 96.539062 217.339844 96.878906 217.421875 97.113281 217.472656 C 98.8125 217.796875 99.785156 218.074219 100.035156 218.304688 C 100.289062 218.539062 100.425781 218.867188 100.453125 219.292969 C 100.484375 220.066406 100.5 224.109375 100.5 231.417969 L 100.453125 238.523438 L 100.480469 239.488281 C 100.480469 240.511719 100.347656 241.148438 100.085938 241.398438 C 99.820312 241.648438 98.769531 241.921875 96.9375 242.222656 C 96.746094 242.246094 96.460938 242.3125 96.089844 242.414062 L 96.089844 243.546875 C 98.460938 243.398438 100.644531 243.324219 102.628906 243.324219 C 104.550781 243.324219 106.550781 243.398438 108.628906 243.546875 L 108.628906 242.414062 C 108.058594 242.285156 107.625 242.203125 107.332031 242.164062 C 105.777344 241.980469 104.871094 241.769531 104.605469 241.523438 C 104.339844 241.28125 104.210938 240.707031 104.210938 239.804688 L 104.152344 228.507812 L 104.238281 220.734375 L 104.238281 220.054688 C 104.238281 219.140625 104.371094 218.550781 104.640625 218.285156 C 104.914062 218.023438 105.90625 217.742188 107.621094 217.445312 C 107.839844 217.40625 108.175781 217.332031 108.628906 217.222656 L 108.628906 216.089844 C 106.394531 216.238281 104.402344 216.3125 102.648438 216.3125 "/>
<path fill-rule="nonzero" fill="rgb(30.984497%, 29.728699%, 30.039978%)" fill-opacity="1" d="M 49.558594 229.023438 C 49.558594 222.894531 49.613281 217.40625 49.722656 212.5625 C 52.796875 212.285156 55.46875 212.148438 57.734375 212.148438 C 61.488281 212.148438 64.363281 212.566406 66.351562 213.40625 C 68.339844 214.242188 69.949219 215.453125 71.183594 217.039062 C 72.03125 218.105469 72.707031 219.539062 73.214844 221.332031 C 73.71875 223.128906 73.972656 225.113281 73.972656 227.285156 C 73.972656 231.445312 73.214844 234.953125 71.695312 237.808594 C 70.175781 240.664062 67.953125 242.835938 65.023438 244.328125 C 62.980469 245.339844 60.382812 245.847656 57.234375 245.847656 C 55.210938 245.847656 52.707031 245.664062 49.722656 245.292969 C 49.613281 240.929688 49.558594 235.507812 49.558594 229.023438 M 43.398438 212.371094 C 43.929688 212.628906 44.199219 213.214844 44.199219 214.136719 L 44.171875 215.078125 L 44.335938 227.175781 C 44.335938 229.898438 44.28125 234.253906 44.171875 240.238281 C 44.132812 242.984375 44.070312 244.546875 43.976562 244.933594 C 43.921875 245.195312 43.820312 245.394531 43.671875 245.542969 C 43.527344 245.691406 43.28125 245.820312 42.941406 245.929688 C 42.601562 246.039062 40.929688 246.382812 37.929688 246.949219 L 37.929688 248.582031 C 41.242188 248.359375 43.792969 248.25 45.578125 248.25 C 46.09375 248.25 47.824219 248.300781 50.773438 248.402344 C 53.71875 248.503906 55.402344 248.554688 55.828125 248.554688 C 63.210938 248.554688 69.09375 246.453125 73.476562 242.257812 C 77.859375 238.058594 80.050781 232.734375 80.050781 226.292969 C 80.050781 222.792969 79.359375 219.726562 77.980469 217.09375 C 76.597656 214.460938 74.660156 212.539062 72.164062 211.335938 C 69.667969 210.128906 66.332031 209.523438 62.152344 209.523438 L 49.832031 209.691406 C 45.542969 209.691406 41.574219 209.589844 37.929688 209.386719 L 37.929688 211.015625 C 41.261719 211.734375 43.085938 212.1875 43.398438 212.371094 "/>
<path fill-rule="nonzero" fill="rgb(48.980713%, 50.500488%, 18.293762%)" fill-opacity="1" d="M 139.910156 148.703125 C 139.910156 148.703125 152.074219 133.425781 160.28125 130.878906 C 160.28125 130.878906 155.1875 120.410156 167.636719 103.152344 C 167.636719 103.152344 161.976562 103.152344 161.695312 83.628906 C 161.695312 83.628906 153.277344 93.816406 139.519531 63.542969 C 139.519531 63.542969 130.289062 91.269531 118.40625 83.914062 C 118.40625 83.914062 120.105469 101.136719 112.464844 103.433594 C 112.464844 103.433594 125.480469 118.148438 120.386719 131.164062 C 120.386719 131.164062 130.855469 134.558594 139.910156 148.703125 "/>
<path fill-rule="nonzero" fill="rgb(48.980713%, 50.500488%, 18.293762%)" fill-opacity="1" d="M 118.839844 148.703125 C 118.839844 148.703125 118.328125 138.839844 120.582031 135.125 C 120.582031 135.125 115.144531 132.867188 114.078125 122.15625 C 114.078125 122.15625 111.933594 124.054688 105.285156 116.753906 C 105.285156 116.753906 105.507812 123.433594 90.152344 116.578125 C 90.152344 116.578125 95.949219 130.171875 88.980469 131.367188 C 88.980469 131.367188 95.398438 137.324219 93.273438 140.753906 C 93.273438 140.753906 103.132812 141.964844 105.566406 148.601562 C 105.566406 148.601562 110.667969 146.378906 118.839844 148.703125 "/>
<path fill-rule="nonzero" fill="rgb(48.980713%, 50.500488%, 18.293762%)" fill-opacity="1" d="M 162.449219 148.703125 C 162.449219 148.703125 162.960938 138.839844 160.703125 135.125 C 160.703125 135.125 166.140625 132.867188 167.210938 122.15625 C 167.210938 122.15625 169.355469 124.054688 176.003906 116.753906 C 176.003906 116.753906 175.777344 123.433594 191.136719 116.578125 C 191.136719 116.578125 185.339844 130.171875 192.304688 131.367188 C 192.304688 131.367188 185.890625 137.324219 188.011719 140.753906 C 188.011719 140.753906 178.152344 141.964844 175.722656 148.601562 C 175.722656 148.601562 170.617188 146.378906 162.449219 148.703125 "/>
<path fill-rule="nonzero" fill="rgb(48.980713%, 50.500488%, 18.293762%)" fill-opacity="1" d="M 209.539062 166.953125 L 72.03125 166.953125 L 72.03125 45.71875 L 209.539062 45.71875 Z M 214.347656 41.050781 L 66.941406 41.050781 L 66.941406 171.199219 L 214.347656 171.199219 Z M 214.347656 41.050781 "/>
<path fill-rule="nonzero" fill="rgb(48.980713%, 50.500488%, 18.293762%)" fill-opacity="1" d="M 218.167969 174.984375 L 63.121094 174.984375 L 63.121094 37.261719 L 218.167969 37.261719 Z M 220.996094 34.398438 L 60.292969 34.398438 L 60.292969 177.84375 L 220.996094 177.84375 Z M 220.996094 34.398438 "/>
</svg>
