<?xml version="1.0" encoding="UTF-8"?>
<svg xmlns="http://www.w3.org/2000/svg" xmlns:xlink="http://www.w3.org/1999/xlink" width="612pt" height="792pt" viewBox="0 0 612 792">
<path fill-rule="evenodd" fill="rgb(0%, 34.498596%, 65.899658%)" fill-opacity="1" d="M 79.328125 72.585938 L 194.988281 72.585938 L 79.328125 322.21875 Z M 79.328125 72.585938 "/>
<path fill-rule="evenodd" fill="rgb(0%, 34.498596%, 65.899658%)" fill-opacity="1" d="M 530.285156 72.585938 L 414.621094 72.585938 L 530.285156 322.21875 Z M 530.285156 72.585938 "/>
<path fill="none" stroke-width="0.557" stroke-linecap="butt" stroke-linejoin="miter" stroke="rgb(10.5896%, 3.529358%, 49.409485%)" stroke-opacity="1" stroke-miterlimit="3.864" d="M 79.328125 719.414062 L 194.988281 719.414062 L 79.328125 469.78125 Z M 79.328125 719.414062 " transform="matrix(1, 0, 0, -1, 0, 792)"/>
<path fill="none" stroke-width="0.557" stroke-linecap="butt" stroke-linejoin="miter" stroke="rgb(10.5896%, 3.529358%, 49.409485%)" stroke-opacity="1" stroke-miterlimit="3.864" d="M 530.285156 719.414062 L 414.621094 719.414062 L 530.285156 469.78125 Z M 530.285156 719.414062 " transform="matrix(1, 0, 0, -1, 0, 792)"/>
<path fill-rule="evenodd" fill="rgb(69.398499%, 70.599365%, 71.398926%)" fill-opacity="1" d="M 206.277344 614.449219 L 206.277344 687.820312 L 227.691406 687.820312 L 227.691406 632.726562 L 269.699219 687.820312 L 295.3125 687.820312 L 295.3125 614.449219 L 273.5625 614.449219 L 273.5625 667.363281 L 233.304688 614.449219 Z M 206.277344 614.449219 "/>
<path fill-rule="evenodd" fill="rgb(69.398499%, 70.599365%, 71.398926%)" fill-opacity="1" d="M 124.964844 657.050781 L 139.964844 629.203125 L 154.964844 657.050781 Z M 151.851562 614.371094 L 127.800781 614.371094 L 87.597656 687.984375 L 110.746094 687.984375 L 119.054688 670 L 160.3125 670.101562 L 170.175781 687.984375 L 193.550781 687.984375 Z M 151.851562 614.371094 "/>
<path fill-rule="evenodd" fill="rgb(69.398499%, 70.599365%, 71.398926%)" fill-opacity="1" d="M 453.425781 657.050781 L 468.425781 629.203125 L 483.425781 657.050781 Z M 480.3125 614.371094 L 456.265625 614.371094 L 416.058594 687.984375 L 439.207031 687.984375 L 447.511719 670 L 488.769531 670.101562 L 498.636719 687.984375 L 522.011719 687.984375 Z M 480.3125 614.371094 "/>
<path fill-rule="evenodd" fill="rgb(69.398499%, 70.599365%, 71.398926%)" fill-opacity="1" d="M 409.195312 665.835938 C 409.195312 643.554688 380.953125 645.535156 380.953125 645.535156 L 348.722656 645.535156 C 348.722656 645.535156 334.367188 645.039062 334.367188 636.871094 C 334.367188 628.699219 347.074219 628.207031 347.074219 628.207031 L 404.480469 628.207031 L 404.480469 614.34375 L 340.488281 614.34375 L 340.488281 614.480469 C 327.824219 615.203125 312.488281 619.429688 312.488281 637.859375 C 312.488281 658.65625 341.191406 658.65625 341.191406 658.65625 L 373.898438 658.65625 C 376.488281 658.65625 387.546875 658.40625 387.546875 666.828125 C 387.546875 675.246094 378.601562 675.242188 378.601562 675.242188 L 317.429688 675.242188 L 317.429688 687.867188 L 382.839844 687.867188 C 385.664062 687.867188 409.195312 688.117188 409.195312 665.835938 "/>
<path fill-rule="evenodd" fill="rgb(0%, 34.498596%, 65.899658%)" fill-opacity="1" d="M 535.8125 717.335938 L 73.800781 717.335938 L 78.398438 706.753906 L 531.214844 706.753906 Z M 535.8125 717.335938 "/>
<path fill-rule="nonzero" fill="rgb(0%, 34.498596%, 65.899658%)" fill-opacity="1" d="M 124.707031 596.019531 L 484.90625 595.886719 L 480.289062 585 L 129.394531 585 Z M 124.707031 596.019531 "/>
<path fill-rule="nonzero" fill="rgb(0%, 34.498596%, 65.899658%)" fill-opacity="1" d="M 305.082031 151.921875 L 139.035156 542.332031 L 470.675781 542.332031 Z M 305.082031 151.921875 "/>
</svg>
