<svg xmlns="http://www.w3.org/2000/svg" width="910" height="764" viewBox="0 0 910 764">
<g>
<path d="M 376.29 543.46 C368.76,544.77 352.72,544.99 264.63,545.00 C166.81,545.00 161.82,544.91 163.10,543.25 C163.84,542.29 167.64,537.90 171.54,533.50 C175.45,529.10 181.75,521.90 185.55,517.50 C194.38,507.27 192.19,509.76 230.62,466.48 C248.71,446.12 273.77,417.88 286.33,403.73 C298.89,389.58 309.38,378.00 309.64,378.00 C310.96,378.00 340.51,394.98 351.69,402.16 C378.28,419.24 391.36,429.79 402.15,442.85 C409.64,451.91 416.92,465.63 419.46,475.46 C421.51,483.39 421.47,500.46 419.38,508.94 C416.99,518.65 410.49,530.65 406.00,533.62 C400.97,536.95 386.93,541.59 376.29,543.46 ZM 379.60 203.09 C378.23,204.66 376.99,206.07 375.88,207.34 C368.17,216.16 366.27,218.33 364.66,218.13 C363.90,218.04 363.21,217.42 362.00,216.72 C329.60,197.97 318.92,191.18 302.50,178.92 C277.49,160.25 266.69,146.03 261.95,125.50 C258.26,109.55 260.43,88.83 267.40,73.49 L 269.67 68.47 L 281.58 64.67 C288.13,62.57 299.95,59.76 307.85,58.42 L 322.22 55.99 L 415.64 56.24 L 509.06 56.50 L 500.66 66.00 C496.04,71.22 481.29,87.86 467.88,102.97 C437.70,136.98 398.68,181.15 394.00,186.61 C392.08,188.85 385.60,196.27 379.60,203.09 ZM 641.41 341.01 C634.64,344.30 628.69,347.00 628.18,347.00 C627.68,347.00 626.20,346.17 624.88,345.15 C602.99,328.18 558.07,303.65 522.00,288.94 C495.53,278.15 457.71,265.72 438.63,261.53 C437.05,261.19 435.94,260.72 436.17,260.50 C436.39,260.28 446.68,260.58 459.03,261.16 C493.66,262.79 534.78,260.98 552.50,257.05 C588.74,249.01 629.18,222.43 657.17,188.27 C675.04,166.46 689.57,137.75 694.13,115.25 C694.83,111.81 695.82,109.00 696.34,109.00 C699.77,109.00 716.24,137.78 720.94,152.00 C734.74,193.75 732.78,232.58 714.97,269.86 C700.60,299.92 675.08,324.61 641.41,341.01 ZM 765.76 682.25 L 765.50 721.50 L 751.44 721.78 C743.71,721.93 737.07,721.74 736.69,721.36 C736.31,720.98 736.00,691.04 736.00,654.83 L 736.00 589.00 L 761.88 589.00 L 773.19 603.22 C783.42,616.08 795.35,630.99 816.96,657.89 L 824.50 667.28 L 824.76 628.14 L 825.02 589.00 L 856.01 589.00 L 855.50 721.50 L 843.64 721.78 C835.26,721.98 831.34,721.70 830.28,720.82 C829.45,720.13 822.82,712.13 815.54,703.03 C808.26,693.94 799.19,682.66 795.40,677.97 C791.60,673.27 783.80,663.49 778.06,656.22 C772.32,648.95 767.27,643.00 766.83,643.00 C766.38,643.00 765.91,660.66 765.76,682.25 ZM 361.50 642.58 L 360.50 721.50 L 331.00 722.05 L 331.00 589.00 L 356.59 589.00 L 364.55 599.08 C368.92,604.63 381.05,619.90 391.50,633.00 C401.95,646.11 412.29,659.13 414.48,661.92 C416.67,664.71 418.81,667.00 419.23,667.00 C419.65,667.00 420.00,649.45 420.00,628.00 L 420.00 589.00 L 450.01 589.00 L 449.50 721.50 L 425.33 722.06 L 416.29 710.78 C411.33,704.58 401.46,692.30 394.38,683.50 C387.29,674.70 380.59,666.32 379.50,664.87 C378.40,663.42 373.90,657.82 369.50,652.41 ZM 713.78 708.75 L 713.50 721.50 L 612.00 722.02 L 612.00 589.00 L 661.75 589.00 L 711.50 589.01 L 711.50 614.00 L 676.72 614.00 L 641.94 614.00 L 642.22 627.75 L 642.50 641.50 L 672.78 641.76 L 703.06 642.03 L 702.78 654.26 L 702.50 666.50 L 642.00 667.03 L 642.00 696.00 L 714.06 696.00 Z" fill="rgb(19.6078%, 20.0000%, 21.5686%)"/>
<path d="M 591.36 242.27 C586.09,245.07 580.78,247.56 575.49,249.73 C581.19,247.30 584.40,244.73 589.06,239.58 L 591.70 236.65 L 591.51 239.81 ZM 429.35 524.51 C430.70,525.50 430.42,525.91 427.37,527.36 C425.41,528.29 423.97,528.71 424.16,528.28 C425.87,524.49 431.14,515.00 431.53,515.00 C431.81,515.00 431.08,516.88 429.91,519.18 C427.99,522.94 427.93,523.48 429.35,524.51 ZM 484.57 261.75 C475.96,261.74 467.31,261.55 459.03,261.16 C446.68,260.58 436.39,260.28 436.17,260.50 C435.94,260.72 437.05,261.19 438.63,261.53 C440.87,262.02 443.37,262.63 446.08,263.33 C445.37,263.41 444.83,263.97 444.51,264.96 C443.89,266.93 443.70,266.89 439.36,263.90 C436.89,262.20 435.03,260.64 435.23,260.43 C435.44,260.23 446.16,260.55 459.05,261.14 C467.27,261.53 475.95,261.73 484.57,261.75 ZM 150.00 619.95 C150.00,620.39 149.43,621.22 148.74,621.80 C147.83,622.55 146.38,622.14 143.49,620.32 C141.30,618.93 140.40,618.15 141.50,618.58 C142.60,619.02 144.96,619.32 146.75,619.26 C148.54,619.20 150.00,619.51 150.00,619.95 ZM 248.93 78.72 C248.89,79.70 248.52,81.38 248.10,82.45 C247.38,84.27 247.30,84.25 246.73,82.07 C246.31,80.48 245.62,79.93 244.56,80.34 C241.88,81.37 242.85,80.13 246.00,78.50 C248.79,77.06 249.00,77.07 248.93,78.72 ZM 500.92 280.85 C508.33,283.55 515.51,286.30 522.00,288.94 C533.96,293.82 546.90,299.78 559.64,306.18 C541.02,297.03 520.95,288.36 500.92,280.85 ZM 242.52 623.02 C241.79,622.41 241.00,622.27 240.76,622.71 C240.52,623.14 240.48,622.90 240.66,622.17 C240.85,621.44 241.00,620.65 241.00,620.42 C241.00,619.03 242.86,620.35 243.30,622.06 C243.73,623.68 243.56,623.88 242.52,623.02 ZM 573.16 250.66 C566.20,253.39 559.28,255.54 552.50,257.05 C547.62,258.13 540.96,259.05 533.15,259.78 C533.78,259.72 534.40,259.65 535.00,259.58 C550.30,257.84 554.53,256.92 568.35,252.35 C570.13,251.76 571.72,251.21 573.16,250.66 ZM 666.53 175.80 C663.54,180.13 660.41,184.31 657.17,188.27 C644.51,203.73 629.29,217.63 613.07,228.97 C634.86,213.55 652.04,196.42 666.53,175.80 ZM 682.15 148.99 C687.75,137.22 692.14,125.07 694.13,115.25 C692.03,125.60 687.82,137.28 682.15,148.99 ZM 453.56 265.37 C455.38,265.89 457.26,266.43 459.19,267.01 C457.19,266.43 455.27,265.87 453.56,265.37 Z" fill="rgb(74.9020%, 63.1373%, 50.1961%)"/>
<path d="M 429.35 524.51 C427.93,523.48 427.99,522.94 429.91,519.18 C431.08,516.88 431.81,515.00 431.53,515.00 C431.43,515.00 431.03,515.60 430.45,516.55 C437.61,503.37 438.42,499.69 438.46,485.50 C438.52,466.46 435.24,455.77 424.21,439.02 C409.96,417.35 386.59,399.54 329.00,366.43 C274.25,334.95 250.46,319.98 234.38,306.88 C201.98,280.50 184.16,246.64 181.44,206.35 C179.21,173.25 190.74,136.61 211.75,110.02 C219.35,100.41 233.87,86.85 243.06,80.46 C242.83,80.80 243.27,80.83 244.56,80.34 C245.62,79.93 246.31,80.48 246.73,82.07 C247.16,83.70 247.31,84.13 247.66,83.47 C247.23,84.83 246.68,86.48 246.02,88.44 C241.78,100.99 240.50,111.89 242.00,122.78 C244.36,139.91 250.09,152.85 261.77,167.36 C265.36,171.84 268.62,175.73 269.01,176.00 C269.40,176.27 273.42,179.88 277.96,184.00 C282.50,188.12 288.75,193.27 291.86,195.43 C315.12,211.61 330.41,221.00 389.50,255.36 C444.69,287.45 471.03,309.01 486.21,334.50 C500.33,358.22 505.66,379.04 504.74,406.86 C504.31,420.04 503.75,424.31 501.19,434.00 C495.83,454.23 489.07,468.02 475.88,485.63 C467.79,496.43 451.69,512.05 442.24,518.27 C438.23,520.91 433.58,523.74 429.98,525.80 C430.31,525.38 430.04,525.02 429.35,524.51 Z M 500.92 280.85 C520.95,288.36 541.02,297.03 559.64,306.18 C585.33,319.09 610.25,333.81 624.88,345.15 C626.20,346.17 627.68,347.00 628.18,347.00 C628.68,347.00 634.59,344.32 641.33,341.04 C634.55,344.35 629.00,347.29 629.00,347.59 C629.00,347.89 630.46,349.33 632.25,350.79 C651.49,366.54 671.25,391.92 685.46,419.17 C689.00,425.95 698.46,445.45 706.49,462.50 C722.96,497.46 732.24,515.58 741.71,531.26 C745.39,537.36 747.96,542.67 747.63,543.51 C746.79,545.70 662.93,545.56 652.50,543.35 C634.29,539.49 618.75,531.95 607.10,521.32 C600.54,515.33 592.25,504.39 590.15,498.93 C589.64,497.59 583.49,484.80 576.49,470.50 C569.50,456.20 560.28,437.30 556.00,428.50 C515.01,344.13 506.42,327.57 497.26,315.28 C487.28,301.91 470.13,284.42 460.38,277.66 C449.71,270.28 445.34,267.38 443.02,266.20 C443.94,266.55 444.16,266.08 444.51,264.96 C444.83,263.97 445.37,263.41 446.08,263.33 C448.43,263.94 450.93,264.63 453.56,265.37 C455.27,265.87 457.19,266.42 459.19,267.01 L 459.19 267.01 C471.94,270.79 486.86,275.74 500.92,280.85 Z M 591.36 242.27 L 591.70 236.65 L 591.10 237.32 C596.67,230.36 599.20,222.91 599.77,212.87 C600.82,194.48 592.52,179.59 576.28,170.75 C565.91,165.11 564.95,165.03 499.85,164.98 C466.93,164.96 440.00,164.55 440.00,164.08 C440.00,163.04 442.76,159.75 463.50,136.00 C472.30,125.93 487.38,108.63 497.00,97.55 C506.62,86.47 518.72,72.59 523.87,66.70 L 533.25 56.00 L 564.37 56.02 C609.73,56.04 626.75,59.19 652.50,72.29 C669.18,80.78 685.81,94.69 698.08,110.15 C697.34,109.41 696.75,109.00 696.34,109.00 C695.82,109.00 694.83,111.81 694.13,115.25 C692.03,125.60 687.82,137.28 682.15,148.99 C677.73,158.10 672.42,167.24 666.53,175.80 C652.04,196.42 634.86,213.55 613.07,228.97 C605.98,233.92 598.71,238.38 591.36,242.27 Z M 505.76 703.50 L 505.50 721.50 L 491.44 721.78 C483.71,721.93 477.07,721.74 476.69,721.36 C476.31,720.98 476.00,691.04 476.00,654.83 L 476.00 589.00 L 509.75 589.01 C539.91,589.01 544.38,589.22 551.75,590.99 C572.74,596.02 584.82,607.83 588.07,626.48 C591.48,646.06 584.17,664.26 569.00,674.00 C566.25,675.76 564.00,677.37 564.00,677.56 C564.00,677.96 581.72,705.53 587.75,714.50 C589.96,717.80 591.58,720.84 591.33,721.25 C591.08,721.66 583.97,722.00 575.53,722.00 L 560.18 722.00 L 557.64 718.98 C556.24,717.32 552.66,712.03 549.68,707.23 C546.70,702.43 541.95,695.01 539.12,690.75 L 533.97 683.00 L 521.68 683.00 C513.40,683.00 508.83,683.41 507.70,684.25 C506.26,685.33 505.99,688.01 505.76,703.50 Z M 132.00 720.97 C122.38,723.69 102.81,724.49 91.46,722.62 C78.59,720.51 64.56,715.31 56.65,709.73 C54.33,708.10 53.91,707.20 54.37,704.92 C55.40,699.73 62.84,685.00 64.43,685.00 C65.26,685.00 69.45,686.76 73.72,688.91 C88.60,696.40 91.41,697.19 105.00,697.71 C116.12,698.14 118.14,697.95 123.28,696.01 C129.69,693.60 131.92,691.05 132.69,685.24 C133.12,682.08 132.73,680.83 130.49,678.16 C127.10,674.14 123.71,672.71 108.53,668.90 C74.80,660.42 65.91,655.42 59.26,641.16 C57.03,636.38 56.81,634.83 57.16,626.16 C57.52,617.21 57.83,616.00 61.29,609.82 C67.75,598.27 75.97,592.74 92.34,588.98 C100.99,586.99 103.88,586.78 116.34,587.29 C126.02,587.68 132.99,588.54 138.37,589.98 C147.36,592.39 158.00,597.43 158.00,599.28 C158.00,600.56 152.42,613.98 149.69,619.62 C149.17,619.36 148.05,619.21 146.75,619.26 C144.96,619.32 142.60,619.02 141.50,618.58 C140.40,618.15 141.30,618.93 143.49,620.32 C144.05,620.67 144.55,620.96 145.00,621.21 C144.32,620.88 143.59,620.48 142.84,620.01 C134.87,615.05 124.94,612.56 113.00,612.53 C95.64,612.48 88.00,616.35 88.00,625.20 C88.00,633.98 91.72,636.20 117.21,642.58 C145.24,649.60 155.08,655.19 160.54,667.19 C163.06,672.73 163.41,674.66 163.40,683.00 C163.40,691.27 163.04,693.23 160.68,698.12 C155.01,709.89 146.10,716.99 132.00,720.97 Z M 507.18 656.72 C508.20,657.94 511.19,658.13 524.45,657.82 C537.97,657.49 541.21,657.11 545.00,655.38 C554.09,651.24 558.80,642.58 557.53,632.36 C556.64,625.27 553.63,621.07 547.02,617.73 C541.59,614.97 541.44,614.96 524.03,615.23 L 506.50 615.50 L 506.23 635.37 C506.03,649.93 506.28,655.64 507.18,656.72 Z M 484.57 261.75 C476.09,261.73 467.56,261.53 459.46,261.16 C467.76,261.34 478.24,261.46 488.00,261.47 C497.11,261.48 505.03,261.40 512.05,261.19 C503.29,261.57 493.95,261.77 484.57,261.75 Z M 726.05 238.79 C722.57,253.90 716.82,268.05 708.98,281.02 C711.15,277.39 713.15,273.66 714.97,269.86 C719.85,259.63 723.55,249.28 726.05,238.79 Z M 704.19 118.53 C704.31,118.72 704.44,118.90 704.56,119.09 C709.50,126.61 713.76,134.60 717.30,142.92 C713.63,134.81 708.52,125.38 704.19,118.53 Z M 546.11 258.15 C552.65,256.97 558.73,255.42 565.15,253.40 C557.39,255.90 552.73,257.12 546.11,258.15 Z M 435.31 260.66 L 434.50 259.99 L 442.46 260.49 C438.10,260.36 435.34,260.33 435.23,260.43 C435.20,260.47 435.23,260.55 435.31,260.66 Z M 722.99 158.57 C725.81,167.81 727.79,177.33 728.89,186.95 C727.77,177.63 725.80,168.17 722.99,158.57 Z M 426.09 527.93 C424.79,528.59 424.00,528.91 424.00,528.72 C424.00,528.69 424.05,528.56 424.15,528.35 C424.15,528.58 424.93,528.40 426.09,527.93 Z M 573.16 250.66 C572.32,250.98 571.42,251.31 570.46,251.64 C573.73,250.48 576.53,249.31 578.73,248.19 C577.74,248.72 576.67,249.23 575.49,249.73 L 575.49 249.73 C574.71,250.05 573.94,250.36 573.16,250.66 Z M 147.65 622.16 C147.92,622.16 148.16,622.12 148.37,622.03 C148.37,622.03 148.36,622.04 148.36,622.04 C148.24,622.16 147.99,622.20 147.65,622.16 Z M 584.00 244.60 C584.52,244.14 585.03,243.69 585.52,243.23 C585.01,243.72 584.51,244.17 584.00,244.60 Z M 440.83 264.91 C440.39,264.62 439.93,264.30 439.48,263.99 C439.98,264.33 440.43,264.64 440.83,264.91 Z M 247.21 77.89 C247.45,77.77 247.67,77.67 247.86,77.61 C247.67,77.68 247.46,77.77 247.21,77.89 Z" fill="rgb(86.6667%, 47.4510%, 12.9412%)"/>
<path d="M 202.48 715.75 L 199.78 722.00 L 185.06 722.00 C176.96,722.00 170.09,721.75 169.78,721.45 C169.19,720.86 174.08,707.97 178.31,699.00 C179.74,695.97 183.43,687.65 186.51,680.50 C194.21,662.67 207.56,632.22 216.97,611.00 C219.04,606.33 221.99,599.46 223.52,595.75 L 226.30 589.00 L 257.96 589.00 L 260.08 593.15 C261.24,595.44 262.78,598.92 263.49,600.90 C264.20,602.88 266.22,607.65 267.98,611.50 C290.43,660.57 316.05,719.42 315.55,720.73 C314.86,722.53 285.66,722.55 284.29,720.75 C283.76,720.06 282.74,717.92 282.02,716.00 C281.30,714.08 278.90,708.33 276.70,703.24 L 272.70 693.97 L 242.16 694.24 L 211.61 694.50 L 208.39 702.00 C206.63,706.12 203.96,712.31 202.48,715.75 Z M 242.52 623.02 C243.56,623.88 243.73,623.68 243.30,622.06 C242.86,620.35 241.00,619.03 241.00,620.42 C241.00,620.65 240.85,621.44 240.66,622.17 C240.48,622.90 240.52,623.14 240.76,622.71 C240.93,622.40 241.37,622.38 241.87,622.61 C241.87,622.60 241.86,622.60 241.86,622.60 C240.95,622.54 239.86,625.21 235.04,637.00 C234.47,638.37 233.86,639.87 233.19,641.50 C222.19,668.34 222.15,668.47 224.25,669.37 C226.13,670.18 260.73,669.61 261.57,668.76 C262.29,668.05 261.48,665.88 252.50,644.50 C250.19,639.00 247.54,632.42 246.61,629.87 C245.69,627.33 244.12,624.51 243.12,623.61 C242.87,623.38 242.66,623.16 242.48,622.98 C242.49,622.99 242.51,623.00 242.52,623.02 Z" fill="rgb(19.6078%, 20.0000%, 21.5686%)"/>

</g>
</svg>